<svg width="64" height="64" viewBox="0 0 64 64" fill="none" xmlns="http://www.w3.org/2000/svg">
<g clip-path="url(#clip0_3_2590)">
<path d="M53.3333 41.3333C50 41.3333 46.8 40.8 43.8133 39.8133C42.88 39.52 41.84 39.7333 41.0933 40.4533L35.2267 46.32C27.68 42.48 21.4933 36.32 17.6533 28.7467L23.52 22.8533C24.2667 22.16 24.48 21.12 24.1867 20.1867C23.2 17.2 22.6667 14 22.6667 10.6667C22.6667 9.2 21.4667 8 20 8H10.6667C9.2 8 8 9.2 8 10.6667C8 35.7067 28.2933 56 53.3333 56C54.8 56 56 54.8 56 53.3333V44C56 42.5333 54.8 41.3333 53.3333 41.3333ZM56 16H48V8H42.6667V16H34.6667V21.3333H42.6667V29.3333H48V21.3333H56V16Z" fill="#305551"/>
<path d="M34.9999 46.7656L35.3235 46.9303L35.5802 46.6736L41.4436 40.8102C42.0529 40.2249 42.8976 40.0508 43.6603 40.2893C46.6961 41.2918 49.9478 41.8333 53.3333 41.8333C54.5239 41.8333 55.5 42.8095 55.5 44V53.3333C55.5 54.5239 54.5239 55.5 53.3333 55.5C28.5695 55.5 8.5 35.4305 8.5 10.6667C8.5 9.47614 9.47614 8.5 10.6667 8.5H20C21.1905 8.5 22.1667 9.47614 22.1667 10.6667C22.1667 14.0523 22.7082 17.304 23.7107 20.3398C23.9509 21.108 23.7696 21.9393 23.1798 22.4869L23.1726 22.4936L23.1656 22.5006L17.299 28.3939L17.0438 28.6502L17.2074 28.9728C21.0957 36.6415 27.3596 42.878 34.9999 46.7656ZM47.5 16V16.5H48H55.5V20.8333H48H47.5V21.3333V28.8333H43.1667V21.3333V20.8333H42.6667H35.1667V16.5H42.6667H43.1667V16V8.5H47.5V16Z" stroke="#305551" stroke-opacity="0.3"/>
<path d="M47.9999 8.29633H42.6666V16H34.9629V21.3334H42.6666V29.0371H47.9999V21.3334H55.7036V16H47.9999V8.29633Z" fill="#79D5CA" stroke="#79D5CA"/>
</g>
<defs>
<clipPath id="clip0_3_2590">
<rect width="64" height="64" fill="white"/>
</clipPath>
</defs>
</svg>
