<svg width="64" height="64" viewBox="0 0 64 64" fill="none" xmlns="http://www.w3.org/2000/svg">
<g clip-path="url(#clip0_3_2566)">
<path d="M58.6673 18.6133V42.6667C58.6673 45.6 56.2673 48 53.334 48H16.0007L5.33398 58.6667V10.6667C5.33398 7.73333 7.73398 5.33333 10.6673 5.33333H37.6007C37.4407 6.18667 37.334 7.09333 37.334 8C37.334 15.36 43.3073 21.3333 50.6673 21.3333C53.6806 21.3333 56.4273 20.2933 58.6673 18.6133ZM42.6673 8C42.6673 12.4267 46.2407 16 50.6673 16C55.094 16 58.6673 12.4267 58.6673 8C58.6673 3.57333 55.094 0 50.6673 0C46.2407 0 42.6673 3.57333 42.6673 8Z" fill="#305551"/>
<path d="M50.6673 21.8333C53.4476 21.8333 56.0061 20.9809 58.1673 19.5731V42.6667C58.1673 45.3239 55.9912 47.5 53.334 47.5H16.0007H15.7935L15.6471 47.6464L5.83398 57.4596V10.6667C5.83398 8.00948 8.01013 5.83333 10.6673 5.83333H37.0083C36.9012 6.53404 36.834 7.26507 36.834 8C36.834 15.6361 43.0312 21.8333 50.6673 21.8333ZM50.6673 15.5C46.5168 15.5 43.1673 12.1505 43.1673 8C43.1673 3.84948 46.5168 0.5 50.6673 0.5C54.8178 0.5 58.1673 3.84948 58.1673 8C58.1673 12.1505 54.8178 15.5 50.6673 15.5Z" stroke="#305551" stroke-opacity="0.3"/>
<circle cx="50.9623" cy="8.2963" r="8.2963" fill="#79D5CA"/>
</g>
<defs>
<clipPath id="clip0_3_2566">
<rect width="64" height="64" fill="white"/>
</clipPath>
</defs>
</svg>
