<svg width="107" height="34" viewBox="0 0 107 34" fill="none" xmlns="http://www.w3.org/2000/svg">
<g clip-path="url(#clip0_3_3101)">
<path fill-rule="evenodd" clip-rule="evenodd" d="M8.25952 21.2446L3.52039 16.4837C2.71511 15.6747 1.40949 15.6747 0.603959 16.4837C-0.20132 17.2927 -0.20132 18.6043 0.603959 19.4135L6.80131 25.6393C7.60658 26.4483 8.9125 26.4483 9.71773 25.6393L15.5509 19.7792L12.6347 16.8494L8.25952 21.2446Z" fill="#16B8A2"/>
<path fill-rule="evenodd" clip-rule="evenodd" d="M26.1224 12.0897L17.0095 21.2444L7.89539 12.0886C7.08985 11.2794 5.78423 11.2794 4.97896 12.0886C4.17368 12.8976 4.17368 14.2092 4.97896 15.0184L15.5512 25.6392C16.3565 26.4482 17.6621 26.4482 18.4676 25.6392L29.0389 15.0195C29.8441 14.2102 29.8441 12.8986 29.0389 12.0897C28.2333 11.2807 26.9277 11.2807 26.1224 12.0897Z" fill="#FFB41F"/>
<path fill-rule="evenodd" clip-rule="evenodd" d="M33.4139 19.4145L27.2175 25.6392C26.4123 26.4483 25.1067 26.4483 24.3013 25.6392L9.35398 10.6233C8.54867 9.8143 8.54867 8.50269 9.35398 7.69372C10.1595 6.88448 11.4651 6.88448 12.2703 7.69372L25.7593 21.2445L30.4974 16.4847C31.3029 15.6757 32.6086 15.6757 33.4139 16.4847C34.2191 17.294 34.2191 18.6056 33.4139 19.4145Z" fill="#F56358"/>
<path fill-rule="evenodd" clip-rule="evenodd" d="M24.6642 7.69461C23.8589 6.88563 22.5533 6.88563 21.7478 7.69461L12.6348 16.8495L15.5512 19.7793L24.6642 10.6244C25.4695 9.81519 25.4695 8.50358 24.6642 7.69461Z" fill="#16B8A2"/>
<path fill-rule="evenodd" clip-rule="evenodd" d="M44.6931 9.12538H42.1572V24.0902H51.4489V21.8302H44.6931V9.12538ZM56.9373 13.625C58.4792 13.625 59.5138 14.2562 60.0819 15.0299L60.2036 13.8286H62.3946V24.0902H60.2036L60.0819 22.889C59.5138 23.6626 58.4792 24.2938 56.9373 24.2938C54.1579 24.2938 52.2712 22.0338 52.2712 18.9594C52.2712 15.8646 54.1579 13.625 56.9373 13.625ZM57.4648 15.7832C55.8823 15.7832 54.7462 17.0252 54.7462 18.9594C54.7462 20.8936 55.8823 22.1356 57.4648 22.1356C58.682 22.1356 59.4124 21.4841 59.9602 20.6086V17.3102C59.4124 16.4348 58.682 15.7832 57.4648 15.7832ZM68.5323 10.3877H66.0978V13.8286H64.1704V15.9054H66.0978V20.4661C66.0978 22.95 67.5787 24.2938 69.9118 24.2938C70.9262 24.2938 71.6768 24.0088 72.184 23.683L71.5348 21.7692C71.2305 21.9524 70.7842 22.0949 70.135 22.0949C69.1814 22.0949 68.5323 21.4841 68.5323 20.4457V15.9054H71.6159V13.8286H68.5323V10.3877ZM76.9218 10.3877H74.4873V13.8286H72.5599V15.9054H74.4873V20.4661C74.4873 22.95 75.9682 24.2938 78.3013 24.2938C79.3157 24.2938 80.0663 24.0088 80.5735 23.683L79.9243 21.7692C79.62 21.9524 79.1737 22.0949 78.5245 22.0949C77.5709 22.0949 76.9218 21.4841 76.9218 20.4457V15.9054H80.0055V13.8286H76.9218V10.3877ZM84.6418 13.8286H82.2073V24.0902H84.6418V13.8286ZM83.4245 9.04394C82.5725 9.04394 81.9232 9.6751 81.9232 10.5506C81.9232 11.4261 82.5725 12.0573 83.4245 12.0573C84.2969 12.0573 84.9461 11.4261 84.9461 10.5506C84.9461 9.6751 84.2969 9.04394 83.4245 9.04394ZM91.9969 13.625C88.8521 13.625 86.7627 15.8646 86.7627 18.9594C86.7627 22.0338 88.8728 24.2938 92.0168 24.2938C93.863 24.2938 95.2625 23.459 96.1757 22.0338L94.4313 20.6697C93.9441 21.4841 93.1533 22.156 92.0375 22.156C90.2318 22.156 89.2375 20.7511 89.2375 18.9594C89.2375 17.1473 90.1912 15.7628 92.0168 15.7628C93.1533 15.7628 93.9035 16.4143 94.37 17.2288L96.1352 15.885C95.222 14.4598 93.863 13.625 91.9969 13.625ZM102.131 13.625C105.276 13.625 106.818 15.9868 106.818 18.8576V19.7127H99.5948C99.6561 21.3415 100.63 22.2374 102.334 22.2374C103.53 22.2374 104.403 21.708 104.87 21.0565L106.554 22.441C105.539 23.6626 104.2 24.2938 102.314 24.2938C99.149 24.2938 97.12 22.0542 97.12 18.9797C97.12 15.885 99.1895 13.625 102.131 13.625ZM102.09 15.5796C100.65 15.5796 99.6759 16.5365 99.5948 17.9618H104.424C104.363 16.5569 103.551 15.5796 102.09 15.5796Z" fill="#0E0E29"/>
</g>
<defs>
<clipPath id="clip0_3_3101">
<rect width="106.958" height="34" fill="white"/>
</clipPath>
</defs>
</svg>
