<svg width="81" height="34" viewBox="0 0 81 34" fill="none" xmlns="http://www.w3.org/2000/svg">
<g clip-path="url(#clip0_3_3104)">
<path d="M8.71854 9.28356V15.7207H2.80671V9.28356H0V24.6496H2.80671V18.4215H8.71854V24.6496H11.5253V9.28356H8.71854Z" fill="#33475B"/>
<path d="M20.5078 19.6822C20.5078 20.298 20.2632 20.8886 19.8277 21.3241C19.3923 21.7595 18.8017 22.0042 18.1858 22.0042C17.57 22.0042 16.9794 21.7595 16.544 21.3241C16.1085 20.8886 15.8639 20.298 15.8639 19.6822V13.1007H13.2016V19.6822C13.2016 21.0029 13.7262 22.2694 14.66 23.2032C15.5939 24.1371 16.8604 24.6617 18.181 24.6617C19.5017 24.6617 20.7682 24.1371 21.7021 23.2032C22.6359 22.2694 23.1605 21.0029 23.1605 19.6822V13.1007H20.5078V19.6822Z" fill="#33475B"/>
<path d="M40.2338 13.779C40.2338 12.4299 41.1263 12.0023 42.104 12.0023C42.892 12.0023 43.933 12.6018 44.6137 13.3293L46.3574 11.2748C45.4869 10.0977 43.7212 9.28357 42.2759 9.28357C39.3881 9.28357 37.2992 10.975 37.2992 13.779C37.2992 18.9812 43.658 17.331 43.658 20.2423C43.658 21.1402 42.7861 21.9337 41.7877 21.9337C40.2132 21.9337 39.703 21.1636 38.9797 20.3495L37.0448 22.3614C38.2824 23.8809 39.8089 24.6524 41.6378 24.6524C44.3813 24.6524 46.5884 22.9403 46.5884 20.2643C46.5884 14.4886 40.2297 16.2832 40.2297 13.779" fill="#33475B"/>
<path d="M79.5718 22.1948C77.9986 22.1948 77.5517 21.5141 77.5517 20.4717V15.858H79.9968V13.5203H77.5517V10.4358L74.8523 11.6473V21.0452C74.8523 23.449 76.5107 24.6605 78.7852 24.6605C79.142 24.667 79.4985 24.6384 79.8496 24.5752L80.5083 22.1508C80.2113 22.1714 79.8702 22.1921 79.5718 22.1921" fill="#33475B"/>
<path d="M30.6421 13.1783C29.3233 13.1783 28.4033 13.5606 27.5136 14.4338V9.37595H24.8471V18.7504C24.8471 22.2599 27.3843 24.6637 30.235 24.6637C33.3979 24.6637 36.1798 22.2172 36.1798 18.9223C36.1798 15.6687 33.6193 13.1797 30.6421 13.1797V13.1783ZM30.6256 21.9807C30.0272 21.9807 29.4423 21.8033 28.9448 21.4708C28.4472 21.1384 28.0595 20.6659 27.8305 20.1131C27.6015 19.5603 27.5416 18.952 27.6583 18.3651C27.7751 17.7783 28.0632 17.2392 28.4863 16.8161C28.9094 16.393 29.4485 16.1049 30.0353 15.9881C30.6222 15.8714 31.2305 15.9313 31.7833 16.1603C32.3361 16.3893 32.8086 16.777 33.1411 17.2745C33.4735 17.7721 33.6509 18.357 33.6509 18.9553C33.6509 19.7577 33.3322 20.5272 32.7648 21.0946C32.1974 21.662 31.4279 21.9807 30.6256 21.9807Z" fill="#33475B"/>
<path d="M59.5946 18.7815C59.5946 15.4811 56.8182 13.0402 53.6498 13.0402C50.7991 13.0402 48.2619 15.444 48.2619 18.9534V28.3334H50.9284V23.2686C51.8167 24.1405 52.7381 24.5242 54.0555 24.5242C57.0327 24.5242 59.5933 22.0365 59.5933 18.7815H59.5946ZM57.0698 18.7485C57.0698 19.3468 56.8924 19.9318 56.56 20.4293C56.2275 20.9268 55.755 21.3146 55.2022 21.5435C54.6494 21.7725 54.0411 21.8324 53.4543 21.7157C52.8674 21.599 52.3283 21.3108 51.9052 20.8877C51.4821 20.4646 51.194 19.9256 51.0773 19.3387C50.9605 18.7518 51.0204 18.1435 51.2494 17.5907C51.4784 17.0379 51.8662 16.5654 52.3637 16.233C52.8612 15.9005 53.4461 15.7231 54.0445 15.7231C54.8469 15.7231 55.6164 16.0419 56.1837 16.6092C56.7511 17.1766 57.0698 17.9461 57.0698 18.7485Z" fill="#33475B"/>
<path d="M68.1823 12.9977V10.3464C68.5326 10.1827 68.8293 9.92287 69.0377 9.59711C69.2461 9.27136 69.3577 8.89309 69.3594 8.50638V8.4445C69.3579 7.90407 69.1426 7.38619 68.7605 7.00405C68.3783 6.62191 67.8605 6.40658 67.32 6.40513H67.2581C66.7177 6.40658 66.1998 6.62191 65.8177 7.00405C65.4356 7.38619 65.2202 7.90407 65.2188 8.4445V8.50638C65.2205 8.89309 65.332 9.27136 65.5404 9.59711C65.7489 9.92287 66.0455 10.1827 66.3959 10.3464V12.9977C65.3885 13.1517 64.4397 13.5692 63.6456 14.2078L56.3655 8.54351C56.4173 8.35666 56.445 8.16395 56.448 7.97007C56.4485 7.51504 56.3141 7.07007 56.0618 6.69143C55.8094 6.31279 55.4505 6.01748 55.0303 5.84285C54.6101 5.66822 54.1476 5.6221 53.7012 5.71034C53.2548 5.79858 52.8446 6.0172 52.5225 6.33857C52.2003 6.65994 51.9807 7.06961 51.8914 7.51579C51.8021 7.96196 51.8471 8.4246 52.0208 8.8452C52.1944 9.26579 52.4888 9.62546 52.8669 9.87871C53.2449 10.132 53.6896 10.2674 54.1446 10.268C54.5443 10.2665 54.9365 10.1598 55.2818 9.95856L62.4396 15.5307C61.7949 16.5034 61.4585 17.6479 61.4745 18.8147C61.4904 19.9815 61.8579 21.1163 62.529 22.071L60.3507 24.2493C60.1758 24.1936 59.9937 24.1639 59.8103 24.1613C59.4363 24.1613 59.0707 24.2722 58.7598 24.4799C58.4488 24.6877 58.2064 24.983 58.0633 25.3285C57.9202 25.674 57.8828 26.0542 57.9557 26.421C58.0287 26.7878 58.2088 27.1247 58.4732 27.3891C58.7377 27.6536 59.0746 27.8337 59.4414 27.9066C59.8082 27.9796 60.1883 27.9421 60.5338 27.799C60.8794 27.6559 61.1747 27.4136 61.3824 27.1026C61.5902 26.7917 61.7011 26.4261 61.7011 26.0521C61.6986 25.8686 61.6689 25.6865 61.6131 25.5117L63.768 23.3568C64.4714 23.8941 65.2883 24.2635 66.1563 24.437C67.0242 24.6104 67.9204 24.5833 68.7763 24.3576C69.6322 24.1319 70.4251 23.7136 71.0947 23.1347C71.7643 22.5557 72.2928 21.8315 72.6398 21.0172C72.9867 20.2029 73.1431 19.3201 73.0969 18.4362C73.0507 17.5522 72.8031 16.6905 72.3731 15.9169C71.943 15.1432 71.3419 14.478 70.6156 13.9721C69.8893 13.4662 69.057 13.1329 68.1823 12.9977ZM67.2898 21.719C66.7001 21.719 66.1237 21.5441 65.6334 21.2165C65.1431 20.8889 64.761 20.4233 64.5354 19.8785C64.3097 19.3337 64.2507 18.7343 64.3657 18.156C64.4807 17.5776 64.7647 17.0464 65.1816 16.6295C65.5986 16.2125 66.1298 15.9286 66.7081 15.8135C67.2865 15.6985 67.8859 15.7575 68.4307 15.9832C68.9755 16.2088 69.4411 16.591 69.7687 17.0813C70.0963 17.5715 70.2711 18.1479 70.2711 18.7376C70.2711 19.5283 69.957 20.2866 69.3979 20.8457C68.8388 21.4049 68.0805 21.719 67.2898 21.719Z" fill="#FF7A59"/>
</g>
<defs>
<clipPath id="clip0_3_3104">
<rect width="80.75" height="34" fill="white"/>
</clipPath>
</defs>
</svg>
