<svg width="107" height="34" viewBox="0 0 107 34" fill="none" xmlns="http://www.w3.org/2000/svg">
<path d="M62.7217 14.8213C64.3606 14.8213 65.9125 15.8239 66.24 17.9901H58.9414C59.2468 16.0892 60.6678 14.8213 62.7217 14.8213ZM66.0068 21.1949C65.4493 22.0638 64.3719 22.7322 62.8968 22.7322C60.8643 22.7322 59.3123 21.618 58.9414 19.651H68.0981C68.1423 19.3691 68.1646 19.0842 68.1649 18.7988C68.1649 15.7397 66.0261 13.0294 62.723 13.0294C59.3143 13.0294 56.9978 15.5425 56.9978 18.7774C56.9978 22.0525 59.3371 24.5254 62.854 24.5254C65.0396 24.5254 66.7005 23.5416 67.6617 22.0525L66.0068 21.1949Z" fill="#006BFF"/>
<path d="M56.098 8.28729H54.1971V24.2407H56.098V8.28729Z" fill="#006BFF"/>
<path d="M78.7421 17.5316V24.2401H76.8406V17.6405C76.8406 15.8486 75.814 14.8434 74.131 14.8434C72.3825 14.8434 70.9622 15.8707 70.9622 18.4493V24.2401H69.0607V13.3148H70.9622V14.8882C71.771 13.5989 72.9727 13.0308 74.5046 13.0308C77.0611 13.0308 78.7441 14.7351 78.7441 17.5329" fill="#006BFF"/>
<path d="M89.2254 18.7768C89.2254 16.5477 87.5424 14.8648 85.3355 14.8648C83.1499 14.8648 81.4676 16.5477 81.4676 18.7768C81.4676 21.0058 83.1499 22.6887 85.3355 22.6887C87.5411 22.6887 89.2254 21.0058 89.2254 18.7768ZM91.1263 8.28729V24.2407H89.2254V22.3606C88.3512 23.6973 86.9529 24.5248 85.0949 24.5248C82.0571 24.5248 79.5661 22.011 79.5661 18.7768C79.5661 15.5425 82.0571 13.0287 85.0949 13.0287C86.9523 13.0287 88.3512 13.8589 89.2254 15.1923V8.28729H91.1263Z" fill="#006BFF"/>
<path d="M94.5603 8.28729H92.6594V24.2407H94.5603V8.28729Z" fill="#006BFF"/>
<path d="M50.8086 18.7768C50.8086 16.5478 49.1263 14.8648 46.9187 14.8648C44.7338 14.8648 43.0508 16.5478 43.0508 18.7768C43.0508 21.0058 44.7338 22.6888 46.9187 22.6888C49.1243 22.6888 50.8086 21.0058 50.8086 18.7768ZM52.7101 13.3148V24.2401H50.8086V22.3606C49.9344 23.6973 48.5361 24.5248 46.6787 24.5248C43.641 24.5248 41.1493 22.011 41.1493 18.7768C41.1493 15.5425 43.641 13.0288 46.6787 13.0288C48.5361 13.0288 49.9344 13.8589 50.8086 15.1923V13.3148H52.7101Z" fill="#006BFF"/>
<path d="M38.3294 22.1373C37.3562 22.4965 36.3057 22.5934 35.2832 22.4185C34.2607 22.2436 33.3021 21.8029 32.5036 21.1407C31.7051 20.4784 31.0948 19.6179 30.7337 18.6454C30.3727 17.6729 30.2737 16.6226 30.4466 15.5997C30.6196 14.5769 31.0584 13.6175 31.719 12.8177C32.3797 12.0179 33.239 11.4059 34.2108 11.043C35.1826 10.68 36.2327 10.579 37.2559 10.7499C38.2791 10.9208 39.2394 11.3577 40.0404 12.0168C40.3745 12.2924 40.6767 12.6045 40.9414 12.9472L42.5863 11.7441C41.628 10.4914 40.3194 9.55135 38.8263 9.04317C37.3331 8.53499 35.7228 8.48154 34.1992 8.8896C32.6757 9.29766 31.3076 10.1489 30.2684 11.3353C29.2292 12.5217 28.5656 13.99 28.3617 15.554C28.1579 17.118 28.423 18.7073 29.1234 20.1205C29.8238 21.5337 30.928 22.7071 32.296 23.492C33.6641 24.277 35.2344 24.6381 36.8079 24.5296C38.3814 24.4211 39.8872 23.8478 41.1346 22.8826L40.0398 21.1515C39.5283 21.5727 38.9503 21.9059 38.3294 22.1373Z" fill="#006BFF"/>
<path d="M103.737 13.3148V19.516C103.737 21.5211 102.571 22.791 100.79 22.791C99.0097 22.791 97.7204 21.5211 97.7204 19.516V13.3148H95.7968V19.3301C95.7968 22.4822 97.7612 24.5288 100.79 24.5288C103.41 24.5288 103.819 22.8712 103.819 22.8297V25.0608C103.819 27.2711 102.858 28.5196 100.852 28.5196C100.135 28.5231 99.4419 28.2661 98.9009 27.7964C98.3599 27.3267 98.008 26.6763 97.9109 25.9664L96.1912 26.568C96.4373 27.6196 97.0323 28.557 97.8792 29.2273C98.7261 29.8976 99.775 30.2614 100.855 30.2594C103.966 30.2594 105.667 28.2122 105.667 25.0608V13.3148H103.737Z" fill="#006BFF"/>
<path d="M15.4762 19.6799C14.7456 20.3282 13.8333 21.1349 12.1791 21.1349H11.1899C9.99283 21.1349 8.90405 20.6998 8.12472 19.9111C7.36344 19.1405 6.94437 18.0858 6.94437 16.9409V15.5874C6.94437 14.4425 7.36344 13.3878 8.12472 12.6172C8.90405 11.8285 9.99283 11.394 11.1899 11.394H12.1791C13.8353 11.394 14.7456 12.2001 15.4762 12.8484C16.2348 13.5168 16.8891 14.101 18.6342 14.101C18.9004 14.1009 19.1661 14.0797 19.4289 14.0375L19.4229 14.0221C19.3184 13.7625 19.1958 13.5106 19.056 13.2682L17.8897 11.2477C17.3637 10.3368 16.6073 9.58047 15.6964 9.05463C14.7855 8.52878 13.7522 8.25197 12.7004 8.25201H10.3671C9.31533 8.25197 8.28206 8.52878 7.37116 9.05463C6.46025 9.58047 5.70381 10.3368 5.17786 11.2477L4.01155 13.2682C3.48577 14.1791 3.20898 15.2124 3.20898 16.2641C3.20898 17.3159 3.48577 18.3492 4.01155 19.2601L5.17786 21.2806C5.70381 22.1915 6.46025 22.9478 7.37116 23.4737C8.28206 23.9995 9.31533 24.2763 10.3671 24.2763H12.7004C13.7522 24.2763 14.7855 23.9995 15.6964 23.4737C16.6073 22.9478 17.3637 22.1915 17.8897 21.2806L19.056 19.2635C19.1958 19.0211 19.3184 18.7691 19.4229 18.5095L19.4289 18.4948C19.1663 18.4512 18.9005 18.4289 18.6342 18.428C16.8891 18.428 16.2348 19.0088 15.4762 19.6805" fill="#006BFF"/>
<path d="M12.1782 12.6204H11.189C9.36698 12.6204 8.16992 13.9218 8.16992 15.5873V16.9408C8.16992 18.6064 9.36698 19.9077 11.189 19.9077H12.1782C14.8329 19.9077 14.6244 17.2008 18.6333 17.2008C19.0131 17.2004 19.3922 17.2353 19.7655 17.3051C19.8872 16.6164 19.8872 15.9117 19.7655 15.2231C19.3921 15.2925 19.0131 15.3274 18.6333 15.3273C14.6231 15.3273 14.8329 12.6204 12.1782 12.6204Z" fill="#006BFF"/>
<path d="M22.069 18.2944C21.3863 17.7944 20.599 17.4559 19.7664 17.3045C19.7664 17.3119 19.7664 17.3179 19.7664 17.3246C19.6948 17.7237 19.5828 18.1144 19.4323 18.4909C20.12 18.5974 20.7725 18.8661 21.3358 19.2749C21.3358 19.2802 21.3324 19.2869 21.3304 19.2929C20.6055 21.6404 19.0625 23.65 16.9819 24.9565C14.9013 26.2631 12.4211 26.7801 9.99174 26.4135C7.56239 26.0469 5.34511 24.8211 3.7427 22.9588C2.14028 21.0964 1.25903 18.7211 1.25903 16.2642C1.25903 13.8074 2.14028 11.432 3.7427 9.56964C5.34511 7.70728 7.56239 6.48147 9.99174 6.11489C12.4211 5.74831 14.9013 6.26527 16.9819 7.57187C19.0625 8.87846 20.6055 10.888 21.3304 13.2355C21.3304 13.2415 21.3338 13.2482 21.3358 13.2535C20.7726 13.6623 20.12 13.9309 19.4323 14.0369C19.5826 14.4138 19.6946 14.805 19.7664 15.2045C19.7661 15.2107 19.7661 15.217 19.7664 15.2232C20.599 15.0721 21.3863 14.7338 22.069 14.234C22.7253 13.7481 22.5983 13.1994 22.4988 12.8745C21.6873 10.2426 19.9585 7.98904 17.6265 6.52347C15.2946 5.05791 12.5143 4.47755 9.79076 4.88787C7.06726 5.2982 4.58133 6.67196 2.78471 8.75954C0.988086 10.8471 0 13.51 0 16.2642C0 19.0184 0.988086 21.6813 2.78471 23.7689C4.58133 25.8564 7.06726 27.2302 9.79076 27.6405C12.5143 28.0509 15.2946 27.4705 17.6265 26.0049C19.9585 24.5394 21.6873 22.2858 22.4988 19.6539C22.5983 19.329 22.7253 18.7803 22.069 18.2944Z" fill="#006BFF"/>
<path d="M19.4289 14.0367C19.1662 14.0803 18.9005 14.1027 18.6342 14.1035C16.8891 14.1035 16.2347 13.5227 15.4768 12.851C14.7456 12.2027 13.8353 11.3959 12.179 11.3959H11.1898C9.99212 11.3959 8.90401 11.831 8.12468 12.6197C7.36341 13.3904 6.94434 14.4451 6.94434 15.59V16.9434C6.94434 18.0884 7.36341 19.1431 8.12468 19.9137C8.90401 20.7024 9.99212 21.1368 11.1898 21.1368H12.179C13.8353 21.1368 14.7456 20.3308 15.4768 19.6824C16.2347 19.0141 16.8891 18.4299 18.6342 18.4299C18.9004 18.43 19.1661 18.4512 19.4289 18.4934C19.5797 18.117 19.6917 17.7262 19.7631 17.3271C19.7635 17.3204 19.7635 17.3137 19.7631 17.307C19.3897 17.2378 19.0106 17.2031 18.6309 17.2034C14.6206 17.2034 14.8305 19.911 12.1757 19.911H11.1865C9.36452 19.911 8.16746 18.609 8.16746 16.9434V15.5873C8.16746 13.9217 9.36452 12.6204 11.1865 12.6204H12.1757C14.8305 12.6204 14.6219 15.3266 18.6309 15.3266C19.0107 15.3273 19.3897 15.2926 19.7631 15.223C19.7631 15.217 19.7631 15.211 19.7631 15.2043C19.6912 14.8049 19.5793 14.4137 19.4289 14.0367Z" fill="#0AE8F0"/>
<path d="M19.4289 14.0367C19.1662 14.0803 18.9005 14.1027 18.6342 14.1035C16.8891 14.1035 16.2347 13.5227 15.4768 12.851C14.7456 12.2027 13.8353 11.3959 12.179 11.3959H11.1898C9.99212 11.3959 8.90401 11.831 8.12468 12.6197C7.36341 13.3904 6.94434 14.4451 6.94434 15.59V16.9434C6.94434 18.0884 7.36341 19.1431 8.12468 19.9137C8.90401 20.7024 9.99212 21.1368 11.1898 21.1368H12.179C13.8353 21.1368 14.7456 20.3308 15.4768 19.6824C16.2347 19.0141 16.8891 18.4299 18.6342 18.4299C18.9004 18.43 19.1661 18.4512 19.4289 18.4934C19.5797 18.117 19.6917 17.7262 19.7631 17.3271C19.7635 17.3204 19.7635 17.3137 19.7631 17.307C19.3897 17.2378 19.0106 17.2031 18.6309 17.2034C14.6206 17.2034 14.8305 19.911 12.1757 19.911H11.1865C9.36452 19.911 8.16746 18.609 8.16746 16.9434V15.5873C8.16746 13.9217 9.36452 12.6204 11.1865 12.6204H12.1757C14.8305 12.6204 14.6219 15.3266 18.6309 15.3266C19.0107 15.3273 19.3897 15.2926 19.7631 15.223C19.7631 15.217 19.7631 15.211 19.7631 15.2043C19.6912 14.8049 19.5793 14.4137 19.4289 14.0367Z" fill="#0AE8F0"/>
</svg>
