<svg width="116" height="34" viewBox="0 0 116 34" fill="none" xmlns="http://www.w3.org/2000/svg">
<path d="M7.06807 22.6668C6.46131 22.0574 5.98131 21.3348 5.65556 20.5404C5.32982 19.746 5.16472 18.8955 5.16973 18.0375C5.16752 17.1796 5.33719 16.3298 5.66881 15.5379C6.00043 14.746 6.48735 14.0278 7.1011 13.4254C7.36401 13.1928 7.57645 12.9093 7.72542 12.5921C7.87439 12.275 7.95676 11.9309 7.96748 11.5809C7.97819 11.231 7.91704 10.8826 7.78775 10.557C7.65846 10.2314 7.46376 9.93548 7.21558 9.68739C6.96739 9.4393 6.67094 9.24423 6.34437 9.11414C6.01781 8.98406 5.668 8.92168 5.31637 8.93083C4.96474 8.93998 4.61869 9.02047 4.2994 9.16737C3.98011 9.31427 3.69431 9.52448 3.45949 9.78515C1.25386 11.9675 0.00947908 14.9324 5.39308e-05 18.0279C-0.00937122 21.1233 1.21693 24.0957 3.40923 26.2913C3.64328 26.5516 3.92815 26.7618 4.24646 26.9089C4.56477 27.0561 4.90985 27.1372 5.26067 27.1472C5.61149 27.1573 5.9607 27.0962 6.28701 26.9676C6.61332 26.8389 6.9099 26.6455 7.15865 26.3991C7.40741 26.1527 7.60314 25.8584 7.73391 25.5342C7.86468 25.2101 7.92775 24.8628 7.91927 24.5136C7.9108 24.1644 7.83095 23.8205 7.68461 23.503C7.53827 23.1855 7.3285 22.901 7.06807 22.6668Z" fill="#FFDA00"/>
<path d="M7.10095 13.4252C8.33785 12.2064 10.0098 11.5255 11.7503 11.5317C13.4907 11.5378 15.1577 12.2306 16.3859 13.458C16.6191 13.7211 16.904 13.9339 17.2229 14.0833C17.5418 14.2328 17.888 14.3157 18.2403 14.3271C18.5926 14.3384 18.9435 14.2779 19.2715 14.1493C19.5994 14.0207 19.8974 13.8267 20.1473 13.5792C20.3971 13.3317 20.5934 13.036 20.7242 12.7102C20.855 12.3844 20.9174 12.0354 20.9077 11.6847C20.8979 11.334 20.8162 10.989 20.6676 10.6709C20.5189 10.3528 20.3065 10.0683 20.0433 9.83494C18.9618 8.74462 17.6745 7.87769 16.2554 7.28394C14.8363 6.6902 13.3133 6.38134 11.774 6.3751C10.2346 6.36885 8.70914 6.66536 7.28522 7.24757C5.8613 7.82979 4.56698 8.68625 3.47657 9.76777C3.21271 9.99916 2.99907 10.2817 2.84872 10.5981C2.69837 10.9145 2.61448 11.2582 2.60217 11.608C2.58986 11.9578 2.6494 12.3064 2.77715 12.6325C2.90489 12.9586 3.09815 13.2554 3.3451 13.5046C3.59205 13.7538 3.88749 13.9502 4.21334 14.0818C4.5392 14.2134 4.88861 14.2775 5.2402 14.27C5.59179 14.2626 5.93816 14.1839 6.25811 14.0386C6.57805 13.8933 6.86485 13.6846 7.10095 13.4252Z" fill="#67B3FF"/>
<path d="M16.3704 22.6994C15.7583 23.3045 15.0323 23.7835 14.234 24.109C13.4356 24.4344 12.5806 24.5999 11.7179 24.596C10.8554 24.5973 10.0013 24.4273 9.20564 24.096C8.40996 23.7647 7.68868 23.2787 7.08402 22.6666C6.85034 22.4049 6.56545 22.1934 6.2468 22.0452C5.92816 21.8969 5.58246 21.8149 5.23087 21.8042C4.87928 21.7936 4.52921 21.8544 4.20208 21.9831C3.87495 22.1118 3.57766 22.3056 3.3284 22.5526C3.07913 22.7996 2.88315 23.0947 2.75245 23.4197C2.62174 23.7448 2.55907 24.0929 2.56827 24.4429C2.57746 24.7929 2.65833 25.1373 2.80592 25.4551C2.95351 25.7729 3.16472 26.0574 3.42661 26.2911C4.50999 27.3813 5.79889 28.248 7.21944 28.8416C8.64 29.4351 10.1643 29.7438 11.7049 29.7499C13.2455 29.756 14.7722 29.4594 16.1975 28.8772C17.6227 28.2949 18.9185 27.4384 20.0106 26.3568C20.2519 26.1189 20.4437 25.8361 20.5752 25.5244C20.7066 25.2127 20.7751 24.8783 20.7767 24.5403C20.7783 24.2022 20.713 23.8672 20.5845 23.5543C20.456 23.2414 20.2668 22.9567 20.0278 22.7166C19.7888 22.4764 19.5046 22.2855 19.1915 22.1547C18.8783 22.0238 18.5423 21.9557 18.2027 21.9541C17.8631 21.9525 17.5265 22.0175 17.2121 22.1454C16.8977 22.2733 16.6117 22.4615 16.3704 22.6994Z" fill="#EB5A68"/>
<path d="M7.1008 13.4251C6.73852 13.7852 6.27693 14.0302 5.77458 14.1288C5.27223 14.2275 4.75175 14.1754 4.27918 13.9793C3.8066 13.7831 3.40321 13.4516 3.12019 13.0269C2.83717 12.6022 2.68726 12.1034 2.68948 11.5937C2.6917 11.0841 2.84595 10.5866 3.13266 10.1644C3.41938 9.74212 3.82564 9.41415 4.29991 9.22205C4.77418 9.02995 5.29509 8.98238 5.79656 9.08537C6.29803 9.18837 6.75747 9.43729 7.1166 9.80056C7.59504 10.2845 7.86187 10.9371 7.85891 11.6161C7.85595 12.295 7.58345 12.9453 7.1008 13.4251Z" fill="#47A1FF"/>
<path d="M7.05125 26.2912C6.68883 26.6512 6.22714 26.8959 5.72475 26.9944C5.22236 27.0929 4.70191 27.0406 4.22941 26.8442C3.75691 26.6478 3.35365 26.3162 3.0708 25.8914C2.78794 25.4666 2.63823 24.9677 2.64065 24.4581C2.64308 23.9484 2.79752 23.451 3.08441 23.0289C3.37129 22.6067 3.77768 22.2789 4.25202 22.087C4.72637 21.8951 5.2473 21.8477 5.74873 21.9509C6.25016 22.0541 6.7095 22.3032 7.06848 22.6666C7.54673 23.1508 7.8133 23.8035 7.81007 24.4824C7.80685 25.1614 7.53408 25.8115 7.05125 26.2912Z" fill="#D5465F"/>
<path d="M31.5447 20.5586C32.29 19.9984 32.3891 20.3114 33.018 20.9374C33.3325 21.2504 34.1926 21.7949 33.6297 22.2551C32.4551 23.2098 31.3954 23.6386 29.8962 23.6386C26.503 23.6229 24.1035 21.1017 24.296 17.7573C24.3778 16.2595 24.9737 14.8417 26.1498 13.8698C27.2253 12.9637 28.5651 12.5692 29.9723 12.6021C30.6621 12.6001 31.3453 12.7341 31.9827 12.9966C32.4144 13.1517 32.8211 13.3683 33.1903 13.6397C33.9356 14.2114 33.5881 14.5458 33.008 15.1218C32.8759 15.2533 32.7437 15.3862 32.6274 15.5177C32.3302 15.8136 32.1306 16.028 31.7343 15.7478C30.9732 15.2204 30.0111 14.9403 29.1021 15.1761C26.1728 15.9165 26.3049 21.106 29.8977 21.1232C30.4932 21.1154 31.0706 20.9175 31.5447 20.5586ZM112.974 23.7029C112.857 23.7035 112.74 23.6809 112.631 23.6364C112.523 23.592 112.424 23.5265 112.341 23.4439C112.258 23.3613 112.192 23.263 112.147 23.1549C112.102 23.0468 112.079 22.9309 112.079 22.8139L112.13 11.3158C112.129 11.1988 112.152 11.0829 112.197 10.9747C112.241 10.8665 112.307 10.7682 112.39 10.6854C112.473 10.6026 112.572 10.537 112.68 10.4924C112.789 10.4478 112.905 10.425 113.023 10.4254H113.984C114.101 10.425 114.218 10.4478 114.326 10.4925C114.435 10.5373 114.534 10.603 114.617 10.6859C114.7 10.7688 114.766 10.8673 114.81 10.9757C114.855 11.084 114.877 11.2001 114.877 11.3172L114.826 22.8154C114.827 22.9323 114.804 23.0481 114.76 23.1562C114.715 23.2644 114.649 23.3626 114.566 23.4452C114.483 23.5279 114.384 23.5934 114.276 23.6378C114.167 23.6823 114.051 23.7049 113.933 23.7044L112.974 23.7029ZM107.948 22.3695C106.906 23.3413 105.912 23.8516 104.439 23.8516C101.46 23.8344 100.036 21.3804 100.036 18.6292L100.053 13.9513C100.053 13.8344 100.076 13.7186 100.121 13.6105C100.165 13.5025 100.231 13.4044 100.315 13.3218C100.398 13.2393 100.497 13.174 100.605 13.1297C100.714 13.0854 100.83 13.063 100.948 13.0637H101.909C102.026 13.0632 102.142 13.0858 102.251 13.1302C102.36 13.1747 102.458 13.2402 102.541 13.3228C102.624 13.4055 102.69 13.5037 102.735 13.6118C102.78 13.72 102.802 13.8358 102.802 13.9527L102.786 18.6306C102.786 20.1627 103.613 21.3647 105.236 21.3647C106.858 21.3647 107.851 20.0141 107.866 18.5062V16.8355C107.853 16.7706 107.848 16.7044 107.851 16.6382L107.866 13.9856C107.866 13.8687 107.888 13.7528 107.933 13.6447C107.978 13.5366 108.044 13.4384 108.127 13.3557C108.21 13.2731 108.308 13.2076 108.417 13.1631C108.526 13.1186 108.642 13.096 108.76 13.0966H109.707C109.825 13.096 109.941 13.1186 110.05 13.1631C110.158 13.2076 110.257 13.2731 110.34 13.3557C110.423 13.4384 110.489 13.5366 110.534 13.6447C110.578 13.7528 110.601 13.8687 110.6 13.9856L110.569 22.8154C110.567 23.049 110.471 23.2722 110.304 23.4359C110.136 23.5996 109.91 23.6905 109.676 23.6886H108.864C108.634 23.6815 108.415 23.5872 108.252 23.4249C108.089 23.2627 107.994 23.0447 107.987 22.8154L107.948 22.3695ZM96.5222 13.0966H98.376C98.4936 13.0983 98.6096 13.1231 98.7175 13.1696C98.8253 13.2162 98.9228 13.2835 99.0044 13.3677C99.086 13.452 99.15 13.5515 99.1927 13.6605C99.2354 13.7694 99.2561 13.8858 99.2534 14.0027V14.6116C99.2515 14.8463 99.1572 15.0709 98.9908 15.2371C98.8243 15.4034 98.5989 15.498 98.3631 15.5006H96.505L96.4719 22.7654C96.4725 22.8823 96.4498 22.9982 96.4051 23.1064C96.3605 23.2146 96.2947 23.3129 96.2117 23.3957C96.1287 23.4785 96.03 23.5441 95.9213 23.5887C95.8127 23.6334 95.6963 23.6561 95.5788 23.6558H94.6195C94.502 23.6561 94.3855 23.6334 94.2767 23.5888C94.168 23.5441 94.0693 23.4786 93.9861 23.3958C93.903 23.3131 93.8371 23.2147 93.7923 23.1065C93.7474 22.9983 93.7246 22.8824 93.7249 22.7654L93.758 12.7179C93.758 10.5268 95.0159 8.79605 97.2675 8.59882C97.3335 8.59882 97.3823 8.58309 97.4484 8.58309C97.5808 8.57452 97.7137 8.57452 97.8462 8.58309H98.7077C98.8251 8.58476 98.9411 8.60954 99.0488 8.65598C99.1566 8.70243 99.254 8.76963 99.3356 8.85372C99.4171 8.93781 99.4812 9.03713 99.524 9.14595C99.5668 9.25477 99.5876 9.37095 99.5851 9.4878V10.0481C99.5836 10.2835 99.4891 10.5089 99.3219 10.6755C99.1548 10.8421 98.9285 10.9366 98.6919 10.9385H97.9969C96.9372 10.9385 96.4906 11.7446 96.4734 12.7336L96.5222 13.0966ZM89.8694 13.0637H91.9013C92.136 13.066 92.3602 13.1609 92.5247 13.3276C92.6892 13.4942 92.7805 13.7191 92.7786 13.9527V14.5616C92.7764 14.7952 92.681 15.0184 92.5136 15.1821C92.3461 15.3458 92.1202 15.4367 91.8855 15.4348H89.8521L89.8363 19.8797C89.8363 20.7373 90.2499 21.2304 91.11 21.2304H91.5236C91.7585 21.233 91.9827 21.3282 92.1471 21.4951C92.3116 21.662 92.4029 21.887 92.401 22.1208V22.7382C92.3983 22.9717 92.3029 23.1947 92.1355 23.3583C91.9681 23.522 91.7424 23.613 91.5078 23.6115H90.7295C90.5857 23.6143 90.4418 23.6086 90.2987 23.5943C88.0974 23.4514 87.1209 22.0307 87.1209 19.8883C87.1382 17.0056 87.1382 14.1399 87.1539 11.2572C87.1551 11.1414 87.1791 11.0269 87.2247 10.9204C87.2702 10.8138 87.3365 10.7172 87.4195 10.6361C87.5026 10.555 87.6009 10.491 87.7088 10.4478C87.8168 10.4045 87.9322 10.3828 88.0486 10.3839H88.992C89.2267 10.3862 89.451 10.4811 89.6155 10.6478C89.78 10.8144 89.8713 11.0393 89.8694 11.2729V13.0637ZM60.4321 12.948H62.4639C62.6987 12.9502 62.9229 13.0451 63.0874 13.2118C63.2519 13.3785 63.3432 13.6033 63.3413 13.8369V14.4487C63.3387 14.6822 63.2432 14.9051 63.0758 15.0688C62.9085 15.2324 62.6828 15.3234 62.4481 15.3219H60.4091V19.7683C60.4091 20.6258 60.8226 21.1189 61.6828 21.1189H62.0978C62.2139 21.12 62.3287 21.1439 62.4356 21.1892C62.5425 21.2344 62.6394 21.3002 62.7207 21.3828C62.8021 21.4653 62.8663 21.563 62.9097 21.6703C62.9531 21.7775 62.9748 21.8922 62.9737 22.0079V22.6167C62.9714 22.8503 62.8761 23.0735 62.7086 23.2373C62.5412 23.401 62.3153 23.4919 62.0805 23.49H61.4688C59.0679 23.4743 57.6779 22.4524 57.6779 19.774C57.6951 16.8912 57.6951 14.0242 57.7109 11.1414C57.7135 10.9077 57.8092 10.6845 57.9769 10.5208C58.1446 10.3571 58.3706 10.2663 58.6055 10.2682H59.5489C59.7837 10.2708 60.0078 10.366 60.172 10.533C60.3362 10.6999 60.4272 10.9249 60.4249 11.1586L60.4321 12.948ZM48.4834 14.2C49.4598 13.2938 50.5196 12.7179 51.8924 12.7179C54.872 12.7336 56.4113 15.1476 56.3941 17.9388L56.3783 22.6167C56.3787 22.7337 56.3558 22.8497 56.311 22.9579C56.2662 23.0661 56.2003 23.1644 56.1171 23.2472C56.034 23.3299 55.9352 23.3955 55.8265 23.4401C55.7178 23.4847 55.6013 23.5075 55.4837 23.5071H54.5245C54.4069 23.5075 54.2904 23.4847 54.1817 23.4401C54.073 23.3955 53.9742 23.3299 53.8911 23.2472C53.8079 23.1644 53.742 23.0661 53.6972 22.9579C53.6524 22.8497 53.6295 22.7337 53.6299 22.6167L53.6471 17.9717C53.6471 16.4396 52.82 15.2376 51.1974 15.2376C49.5747 15.2376 48.5825 16.5725 48.5667 18.0875L48.5494 22.6167C48.5472 22.8503 48.4518 23.0735 48.2844 23.2373C48.1169 23.401 47.891 23.4919 47.6563 23.49H46.7128C46.4781 23.4877 46.2539 23.3928 46.0894 23.2261C45.9249 23.0595 45.8335 22.8346 45.8355 22.601C45.8512 19.784 45.8512 16.9512 45.8685 14.1342V13.7555C45.8692 13.5221 45.9629 13.2985 46.129 13.1338C46.2951 12.969 46.52 12.8765 46.7545 12.8765H47.5658C47.7963 12.8833 48.0155 12.9775 48.1786 13.1398C48.3417 13.3021 48.4363 13.5203 48.4432 13.7498L48.4834 14.2ZM77.9767 14.3143C78.9531 13.4096 80.0115 12.8322 81.3857 12.8322C84.3653 12.8493 85.9032 15.2705 85.8874 18.0546L85.8702 22.7382C85.8708 22.8552 85.8481 22.9711 85.8034 23.0793C85.7587 23.1875 85.693 23.2858 85.61 23.3686C85.5269 23.4513 85.4282 23.5169 85.3196 23.5616C85.211 23.6062 85.0945 23.629 84.977 23.6286H84.0178C83.9002 23.629 83.7837 23.6062 83.675 23.5616C83.5663 23.517 83.4675 23.4514 83.3844 23.3687C83.3012 23.2859 83.2353 23.1876 83.1905 23.0794C83.1457 22.9712 83.1228 22.8552 83.1232 22.7382L83.1404 18.0932C83.1404 16.5611 82.3119 15.3591 80.6907 15.3591C79.0695 15.3591 78.0758 16.6925 78.0585 18.209L78.0356 22.7382C78.0329 22.972 77.9373 23.1951 77.7696 23.3588C77.6019 23.5225 77.3758 23.6134 77.141 23.6115H76.1975C75.963 23.6088 75.7392 23.5138 75.575 23.3471C75.4108 23.1805 75.3197 22.9559 75.3216 22.7225L75.3546 13.8755C75.355 13.7592 75.3785 13.6442 75.4237 13.537C75.4689 13.4297 75.535 13.3325 75.6182 13.2508C75.7013 13.1691 75.7999 13.1046 75.9082 13.0609C76.0165 13.0173 76.1324 12.9954 76.2492 12.9966H77.0605C77.2919 13.0042 77.5116 13.0996 77.6745 13.2633C77.8374 13.4271 77.9311 13.6466 77.9365 13.877L77.9767 14.3143ZM39.4727 12.635C36.2446 12.6178 33.9614 14.9403 33.9442 18.1361C33.9284 21.3647 36.1786 23.6558 39.4397 23.6715C42.7007 23.6872 44.9839 21.4147 44.9997 18.1647C45.017 14.9903 42.6835 12.6507 39.4727 12.635ZM66.2678 19.2409C66.499 20.723 67.9235 21.3318 69.3135 21.349C70.0103 21.3429 70.6981 21.1915 71.3325 20.9045C71.4345 20.8631 71.5338 20.8154 71.6297 20.7616C71.9614 20.5801 72.2587 20.4657 72.5574 20.7616C72.7225 20.9259 72.8718 21.0917 73.037 21.2389C73.1929 21.3871 73.337 21.5471 73.4678 21.7177C73.9143 22.2766 73.5999 22.4095 73.0872 22.7553C71.9945 23.48 70.5714 23.8416 69.2632 23.8416C65.7552 23.8258 63.4375 21.6977 63.4375 18.1761C63.4548 14.8474 65.771 12.6407 69.1139 12.6564C72.5243 12.6736 74.46 14.6673 74.5103 18.0603C74.5261 18.9822 74.5591 19.2795 73.5999 19.2795L66.2678 19.2409ZM39.4727 15.1218C41.1441 15.1218 42.2527 16.5725 42.2527 18.1704C42.2527 19.834 41.2102 21.1718 39.4555 21.1718C37.7007 21.1718 36.6754 19.8211 36.6754 18.1575C36.6754 16.4939 37.7352 15.1218 39.4727 15.1218ZM66.3411 16.9512L71.8365 16.967C71.6369 15.5992 70.4953 15.0561 69.1886 15.0561C67.8818 15.0561 66.7474 15.6664 66.3411 16.9512Z" fill="#29303A"/>
</svg>
