<svg width="64" height="64" viewBox="0 0 64 64" fill="none" xmlns="http://www.w3.org/2000/svg">
<g clip-path="url(#clip0_3_2578)">
<path d="M32.0007 50.6666C32.0007 40.3466 40.3473 32 50.6673 32C53.5473 32 56.2407 32.6666 58.6673 33.8133V16C58.6673 13.0666 56.2673 10.6666 53.334 10.6666H10.6673C7.73398 10.6666 5.33398 13.0666 5.33398 16V48C5.33398 50.9333 7.73398 53.3333 10.6673 53.3333H32.214C32.0807 52.4533 32.0007 51.5733 32.0007 50.6666ZM10.6673 16L32.0007 29.3333L53.334 16V21.3333L32.0007 34.6666L10.6673 21.3333V16ZM46.2407 58.6666L36.8007 49.2266L40.5607 45.4666L46.214 51.12L57.5207 39.8133L61.334 43.5733L46.2407 58.6666Z" fill="#305551"/>
<path d="M10.9323 15.576L10.1673 15.0978V16V21.3333V21.6104L10.4023 21.7573L31.7357 35.0906L32.0007 35.2563L32.2657 35.0906L53.599 21.7573L53.834 21.6104V21.3333V16V15.0978L53.069 15.576L32.0007 28.7437L10.9323 15.576ZM46.5675 51.4735L57.5231 40.5179L60.6244 43.5758L46.2407 57.9595L37.5078 49.2266L40.5607 46.1737L45.8604 51.4735L46.214 51.8271L46.5675 51.4735ZM50.6673 31.5C40.0712 31.5 31.5007 40.0705 31.5007 50.6666C31.5007 51.4039 31.5519 52.1221 31.6402 52.8333H10.6673C8.01013 52.8333 5.83398 50.6572 5.83398 48V16C5.83398 13.3428 8.01013 11.1666 10.6673 11.1666H53.334C55.9912 11.1666 58.1673 13.3428 58.1673 16V33.0408C55.867 32.0616 53.3462 31.5 50.6673 31.5Z" stroke="#305551" stroke-opacity="0.3"/>
<path d="M37.334 49.1852L40.2969 46.2222L46.2229 51.5555L58.0747 40.2963L61.0377 43.8518L46.2229 58.6666L37.334 49.1852Z" fill="#79D5CA" stroke="#79D5CA"/>
</g>
<defs>
<clipPath id="clip0_3_2578">
<rect width="64" height="64" fill="white"/>
</clipPath>
</defs>
</svg>
