<svg width="64" height="64" viewBox="0 0 64 64" fill="none" xmlns="http://www.w3.org/2000/svg">
<g clip-path="url(#clip0_3_2601)">
<circle cx="32.5935" cy="31.4074" r="23.1111" fill="#79D5CA"/>
<path d="M32.0006 5.33337C17.2807 5.33337 5.33398 17.28 5.33398 32C5.33398 46.72 17.2807 58.6667 32.0006 58.6667C46.7206 58.6667 58.6673 46.72 58.6673 32C58.6673 17.28 46.7206 5.33337 32.0006 5.33337ZM34.6673 50.6667H29.334V45.3334H34.6673V50.6667ZM40.1873 30L37.7873 32.4534C35.8673 34.4 34.6673 36 34.6673 40H29.334V38.6667C29.334 35.7334 30.534 33.0667 32.454 31.12L35.7606 27.76C36.7473 26.8 37.334 25.4667 37.334 24C37.334 21.0667 34.934 18.6667 32.0006 18.6667C29.0673 18.6667 26.6673 21.0667 26.6673 24H21.334C21.334 18.1067 26.1073 13.3334 32.0006 13.3334C37.894 13.3334 42.6673 18.1067 42.6673 24C42.6673 26.3467 41.7073 28.48 40.1873 30Z" fill="#305551"/>
<path d="M34.6673 51.1667H35.1673V50.6667V45.3334V44.8334H34.6673H29.334H28.834V45.3334V50.6667V51.1667H29.334H34.6673ZM38.1433 32.8045L38.1447 32.803L40.5409 30.3536C40.5415 30.3529 40.5422 30.3523 40.5429 30.3516C42.1517 28.7418 43.1673 26.4836 43.1673 24C43.1673 17.8306 38.1701 12.8334 32.0006 12.8334C25.8312 12.8334 20.834 17.8306 20.834 24V24.5H21.334H26.6673H27.1673V24C27.1673 21.3428 29.3435 19.1667 32.0006 19.1667C34.6578 19.1667 36.834 21.3428 36.834 24C36.834 25.3306 36.3027 26.535 35.412 27.4017L35.4119 27.4016L35.4043 27.4093L32.098 30.7689L32.454 31.12L32.0976 30.7693L32.0978 30.7692C30.0912 32.8037 28.834 35.5943 28.834 38.6667V40V40.5H29.334H34.6673H35.1673V40C35.1673 38.0512 35.4594 36.7289 35.9594 35.6702C36.4617 34.6067 37.1915 33.7695 38.1433 32.8045ZM5.83398 32C5.83398 17.5562 17.5568 5.83337 32.0006 5.83337C46.4445 5.83337 58.1673 17.5562 58.1673 32C58.1673 46.4439 46.4445 58.1667 32.0006 58.1667C17.5568 58.1667 5.83398 46.4439 5.83398 32Z" stroke="#305551" stroke-opacity="0.3"/>
</g>
<defs>
<clipPath id="clip0_3_2601">
<rect width="64" height="64" fill="white"/>
</clipPath>
</defs>
</svg>
