<svg width="16" height="17" viewBox="0 0 16 17" fill="none" xmlns="http://www.w3.org/2000/svg">
<path d="M15.6304 8.48946C15.6304 7.95391 15.5785 7.40109 15.4922 6.88281H8.01172V9.94064H12.2961C12.1234 10.9254 11.5533 11.7892 10.7067 12.342L13.2636 14.3287C14.7666 12.9294 15.6304 10.8908 15.6304 8.48946Z" fill="#4280EF"/>
<path d="M8.01278 16.229C10.155 16.229 11.9517 15.5207 13.2646 14.3114L10.7078 12.342C9.9995 12.8257 9.08388 13.1021 8.01278 13.1021C5.93968 13.1021 4.19482 11.7028 3.55561 9.83698L0.929688 11.8582C2.2772 14.536 5.00679 16.229 8.01278 16.229Z" fill="#34A353"/>
<path d="M3.55504 9.8197C3.2268 8.83497 3.2268 7.76387 3.55504 6.77915L0.929111 4.7406C-0.193818 6.98646 -0.193818 9.62966 0.929111 11.8582L3.55504 9.8197Z" fill="#F6B704"/>
<path d="M8.01278 3.51407C9.13571 3.4968 10.2414 3.92869 11.0533 4.7061L13.3165 2.42569C11.8826 1.07818 9.98223 0.352594 8.01278 0.369869C5.00679 0.369869 2.2772 2.0629 0.929688 4.74066L3.55561 6.7792C4.19482 4.89614 5.93968 3.51407 8.01278 3.51407Z" fill="#E54335"/>
</svg>
