<svg width="221" height="198" viewBox="0 0 221 198" fill="none" xmlns="http://www.w3.org/2000/svg">
<path d="M17.3815 23.4117V37.1331V153.308L120.75 192.643V46.7382L17.3815 23.4117Z" fill="#3C6A65" stroke="black"/>
<path d="M21.9539 28.9004V36.0959V162.992L117.09 190.814V50.007L21.9539 28.9004Z" fill="black" stroke="black"/>
<path d="M120.29 45.8235L18.2941 23.8691L116.174 1L220 23.8691L120.29 45.8235Z" fill="#3C6A65" stroke="black"/>
<path d="M121.206 192.643L120.443 46.2123L219.544 23.9767V170.689L121.206 192.643Z" fill="#3C6A65" stroke="black"/>
<path d="M39.3361 98.8799L5.94714 107.113L46.1968 118.09V183.496L89.1908 169.774V111.229L39.3361 98.8799Z" fill="#94DDD5"/>
<path d="M39.3361 98.8799L5.94714 107.113L46.1968 118.09V183.496L89.1908 169.774V111.229L39.3361 98.8799Z" fill="black" fill-opacity="0.1"/>
<path d="M39.3361 98.8799L5.94714 107.113L46.1968 118.09V183.496L89.1908 169.774V111.229L39.3361 98.8799Z" stroke="black"/>
<path d="M45.7799 118.09V117.713L45.4172 117.609L6.9971 106.632L6.35974 106.45V107.113V173.891V174.285L6.74393 174.377L45.1641 183.525L45.7799 183.671V183.038V118.09Z" fill="#94DDD5" stroke="black"/>
<rect x="6.06757" y="130.906" width="12.8067" height="4.57383" rx="2.28691" transform="rotate(-12 6.06757 130.906)" fill="black"/>
<rect x="6.06757" y="155.604" width="12.8067" height="4.57383" rx="2.28691" transform="rotate(-12 6.06757 155.604)" fill="black"/>
<rect y="128.61" width="9.14765" height="33.8463" rx="4.57383" fill="black"/>
<path d="M39.3361 33.0168L5.94714 41.2497L46.1968 52.2268V117.633L89.1908 103.911V45.3661L39.3361 33.0168Z" fill="#94DDD5"/>
<path d="M39.3361 33.0168L5.94714 41.2497L46.1968 52.2268V117.633L89.1908 103.911V45.3661L39.3361 33.0168Z" fill="black" fill-opacity="0.1"/>
<path d="M39.3361 33.0168L5.94714 41.2497L46.1968 52.2268V117.633L89.1908 103.911V45.3661L39.3361 33.0168Z" stroke="black"/>
<path d="M45.7799 52.2269V51.8498L45.4172 51.7462L6.9971 40.769L6.35974 40.5869V41.2497V108.028V108.423L6.74393 108.514L45.1641 117.662L45.7799 117.808V117.175V52.2269Z" fill="#94DDD5" stroke="black"/>
<rect x="6.06757" y="65.0428" width="12.8067" height="4.57383" rx="2.28691" transform="rotate(-12 6.06757 65.0428)" fill="black"/>
<rect x="6.06757" y="89.7415" width="12.8067" height="4.57383" rx="2.28691" transform="rotate(-12 6.06757 89.7415)" fill="black"/>
<rect y="62.7467" width="9.14765" height="33.8463" rx="4.57383" fill="black"/>
<path d="M89.6464 111.686L57.6296 119.462L96.5071 130.897V196.302L115.26 190.814V117.632L89.6464 111.686Z" fill="#94DDD5"/>
<path d="M89.6464 111.686L57.6296 119.462L96.5071 130.897V196.302L115.26 190.814V117.632L89.6464 111.686Z" fill="black" fill-opacity="0.1"/>
<path d="M89.6464 111.686L57.6296 119.462L96.5071 130.897V196.302L115.26 190.814V117.632L89.6464 111.686Z" stroke="black"/>
<path d="M97.0072 130.897V130.519L96.6445 130.416L58.2244 119.439L57.587 119.257V119.919V186.697V187.092L57.9712 187.184L96.3914 196.331L97.0072 196.478V195.845V130.897Z" fill="#94DDD5" stroke="black"/>
<rect x="57.2949" y="143.712" width="12.8067" height="4.57383" rx="2.28691" transform="rotate(-12 57.2949 143.712)" fill="black"/>
<rect x="57.2949" y="168.411" width="12.8067" height="4.57383" rx="2.28691" transform="rotate(-12 57.2949 168.411)" fill="black"/>
<rect x="51.2274" y="141.416" width="9.14765" height="33.8463" rx="4.57383" fill="black"/>
<path d="M89.6464 45.8236L57.6296 53.5991L96.5071 65.0336V130.439L115.26 124.951V51.7695L89.6464 45.8236Z" fill="#94DDD5"/>
<path d="M89.6464 45.8236L57.6296 53.5991L96.5071 65.0336V130.439L115.26 124.951V51.7695L89.6464 45.8236Z" fill="black" fill-opacity="0.1"/>
<path d="M89.6464 45.8236L57.6296 53.5991L96.5071 65.0336V130.439L115.26 124.951V51.7695L89.6464 45.8236Z" stroke="black"/>
<path d="M97.0072 65.0335V64.6564L96.6445 64.5528L58.2244 53.5756L57.587 53.3935V54.0563V120.834V121.229L57.9712 121.321L96.3914 130.468L97.0072 130.615V129.982V65.0335Z" fill="#94DDD5" stroke="black"/>
<rect x="57.2949" y="77.8494" width="12.8067" height="4.57383" rx="2.28691" transform="rotate(-12 57.2949 77.8494)" fill="black"/>
<rect x="57.2949" y="102.548" width="12.8067" height="4.57383" rx="2.28691" transform="rotate(-12 57.2949 102.548)" fill="black"/>
<rect x="51.2274" y="75.5534" width="9.14765" height="33.8463" rx="4.57383" fill="black"/>
</svg>
