<svg width="221" height="143" viewBox="0 0 221 143" fill="none" xmlns="http://www.w3.org/2000/svg">
<path d="M11.2478 115.724V27.9939L116.974 54.5378V141.818L11.2478 115.724Z" fill="#3C6A65" stroke="black"/>
<path d="M117.873 141.818V54.5378L220 27.9939V116.174L117.873 141.818Z" fill="#3C6A65" stroke="black"/>
<path d="M113.375 1L12.1476 27.9939L117.424 54.5378L219.101 27.9939L113.375 1Z" fill="#3C6A65" stroke="black"/>
<path d="M113.825 56.7873L15.2971 32.0429V114.374L113.825 137.319V56.7873Z" fill="black" stroke="black"/>
<path d="M38.6918 38.3414L5.8493 46.4396L45.4403 57.2371V121.572L87.7307 108.076V50.4886L38.6918 38.3414Z" fill="#94DDD5"/>
<path d="M38.6918 38.3414L5.8493 46.4396L45.4403 57.2371V121.572L87.7307 108.076V50.4886L38.6918 38.3414Z" fill="black" fill-opacity="0.1"/>
<path d="M38.6918 38.3414L5.8493 46.4396L45.4403 57.2371V121.572L87.7307 108.076V50.4886L38.6918 38.3414Z" stroke="black"/>
<path d="M45.0393 57.2372V56.86L44.6767 56.7564L6.88529 45.9589L6.24792 45.7768V46.4396V112.125V112.52L6.63211 112.611L44.4235 121.609L45.0393 121.756V121.123V57.2372Z" fill="#94DDD5" stroke="black"/>
<rect x="5.96893" y="69.8433" width="12.5971" height="4.49898" rx="2.24949" transform="rotate(-12 5.96893 69.8433)" fill="black"/>
<rect x="5.96893" y="94.1378" width="12.5971" height="4.49898" rx="2.24949" transform="rotate(-12 5.96893 94.1378)" fill="black"/>
<rect y="67.5849" width="8.99796" height="33.2924" rx="4.49898" fill="black"/>
<path d="M88.1797 50.9386L56.6868 58.5868L94.9281 69.8343V134.17L113.374 128.771V56.7873L88.1797 50.9386Z" fill="#94DDD5"/>
<path d="M88.1797 50.9386L56.6868 58.5868L94.9281 69.8343V134.17L113.374 128.771V56.7873L88.1797 50.9386Z" fill="black" fill-opacity="0.1"/>
<path d="M88.1797 50.9386L56.6868 58.5868L94.9281 69.8343V134.17L113.374 128.771V56.7873L88.1797 50.9386Z" stroke="black"/>
<path d="M95.4289 69.8344V69.4572L95.0662 69.3536L57.2748 58.5561L56.6375 58.374V59.0368V124.722V125.117L57.0217 125.208L94.8131 134.206L95.4289 134.353V133.72V69.8344Z" fill="#94DDD5" stroke="black"/>
<rect x="56.3573" y="82.4405" width="12.5971" height="4.49898" rx="2.24949" transform="rotate(-12 56.3573 82.4405)" fill="black"/>
<rect x="56.3573" y="106.735" width="12.5971" height="4.49898" rx="2.24949" transform="rotate(-12 56.3573 106.735)" fill="black"/>
<rect x="50.3884" y="80.1819" width="8.99796" height="33.2924" rx="4.49898" fill="black"/>
</svg>
